<?xml version="1.0" encoding="utf-8"?>
<!-- Generator: Adobe Illustrator 23.0.1, SVG Export Plug-In . SVG Version: 6.00 Build 0)  -->
<svg version="1.1" xmlns="http://www.w3.org/2000/svg" xmlns:xlink="http://www.w3.org/1999/xlink" x="0px" y="0px"
	 viewBox="0 0 750 500" style="enable-background:new 0 0 750 500;" xml:space="preserve">
<style type="text/css">
	.st0{display:none;}
	.st1{display:inline;fill:#FFFFFF;}
	.st2{fill:none;stroke:#FFFFFF;stroke-miterlimit:10;}
	.st3{fill:none;stroke:#FFFFFF;stroke-linejoin:round;stroke-miterlimit:10;}
	.st4{fill:none;stroke:#FFFFFF;stroke-width:3;stroke-miterlimit:10;}
	.st5{fill:#FFFFFF;stroke:#FFFFFF;stroke-linejoin:round;stroke-miterlimit:10;}
	.st6{fill:#F76652;}
	.st7{fill:#FFFFFF;}
	.st8{fill:none;stroke:#FFFFFF;stroke-linecap:round;stroke-linejoin:round;stroke-miterlimit:10;}
	.st9{fill:none;stroke:#FFFFFF;stroke-linejoin:round;stroke-miterlimit:10;}
	.st10{fill:#475577;}
	.st11{fill:#717A91;}
	.st12{fill:none;stroke:#544943;stroke-width:1.5;stroke-miterlimit:10;}
	.st13{opacity:0.45;}
	.st14{fill:#8E9DB2;}
	.st15{fill:#FFCBBB;}
	.st16{fill:#E6E8EF;}
	.st17{fill:#1B5E20;}
	.st18{fill:#154417;stroke:#154417;stroke-miterlimit:10;}
	.st19{fill:#173789;}
	.st20{fill:#FCA32D;}
	.st21{fill:none;stroke:#CE680D;stroke-miterlimit:10;}
	.st22{fill:#FFB548;}
	.st23{fill:none;stroke:#ED841B;stroke-miterlimit:10;}
	.st24{fill:none;stroke:#ED841B;stroke-miterlimit:10;stroke-dasharray:3,2;}
	.st25{fill:none;stroke:#154417;stroke-miterlimit:10;}
	.st26{fill:none;stroke:#154918;stroke-miterlimit:10;}
	.st27{fill:#E6E8EF;stroke:#846A6A;stroke-linejoin:round;stroke-miterlimit:10;}
	.st28{fill:none;stroke:#EF977F;stroke-miterlimit:10;}
	.st29{fill:#8EBCA2;}
	.st30{fill:#A2CCB6;}
	.st31{fill:#597F6E;}
	.st32{fill:#F2F5F9;}
	.st33{fill:#E7EAF2;}
	.st34{fill:#C0CCD8;}
	.st35{opacity:0.45;fill:#8E9DB2;}
	.st36{fill:#C6D2E0;}
	.st37{opacity:0.65;}
	.st38{opacity:0.55;}
	.st39{fill:url(#SVGID_1_);}
	.st40{fill:#E8EAEF;}
	.st41{fill:none;stroke:#FFFFFF;stroke-width:2;stroke-miterlimit:10;}
	.st42{display:inline;}
	.st43{fill:#1D262D;}
</style>
<g id="BACKGROUND" class="st0">
	<rect class="st1" width="750" height="500"/>
</g>
<g id="OBJECTS">
	<g>
		<g>
			<g>
				<path class="st2" d="M369.44,152.26H252.1c-1.77,0-3.21-1.44-3.21-3.21V80.71c0-1.77,1.44-3.21,3.21-3.21h117.34
					c1.77,0,3.21,1.44,3.21,3.21v68.34C372.64,150.82,371.21,152.26,369.44,152.26z"/>
				<line class="st2" x1="248.89" y1="91.05" x2="372.64" y2="91.05"/>
				<circle class="st2" cx="256.88" cy="84.35" r="1.98"/>
				<path class="st2" d="M267,84.35c0,1.09-0.89,1.98-1.98,1.98c-1.09,0-1.98-0.89-1.98-1.98s0.89-1.98,1.98-1.98
					C266.11,82.37,267,83.26,267,84.35z"/>
				<path class="st2" d="M275.14,84.35c0,1.09-0.89,1.98-1.98,1.98c-1.09,0-1.98-0.89-1.98-1.98s0.89-1.98,1.98-1.98
					C274.25,82.37,275.14,83.26,275.14,84.35z"/>
			</g>
			<g>
				<g>
					<g>
						<path class="st3" d="M183.97,160.08h29.26c2.83,0,5.12-2.29,5.12-5.12v-29.26c0-2.83-2.29-5.12-5.12-5.12h-29.26
							c-2.83,0-5.12,2.29-5.12,5.12v29.26C178.85,157.78,181.14,160.08,183.97,160.08z"/>
					</g>
					<g>
						<circle class="st4" cx="198.6" cy="140.32" r="11.31"/>
						<line class="st4" x1="206.24" y1="132.34" x2="190.27" y2="148.31"/>
					</g>
				</g>
			</g>
			<path class="st5" d="M480.24,151.09l-8.19-8.49H345.96c-5.9,0-10.68-4.78-10.68-10.68V66.36c0-5.9,4.78-10.68,10.68-10.68h126.65
				c5.9,0,10.68,4.78,10.68,10.68v83.5C483.29,151.45,481.35,152.24,480.24,151.09z"/>
			<g>
				<g>
					<path class="st6" d="M385.96,113.29h-5.42v9.53h-13.14v-9.53h-19.64v-9.77l20.48-29.95h12.3v29.78h5.42V113.29z M367.39,103.35
						v-5.73c0-1.08,0.04-2.53,0.12-4.36c0.08-1.83,0.14-2.79,0.19-2.88h-0.37c-0.76,1.73-1.63,3.35-2.59,4.85l-5.46,8.12H367.39z"/>
					<path class="st6" d="M427.01,98.26c0,8.71-1.46,15.1-4.38,19.15c-2.92,4.05-7.39,6.08-13.41,6.08
						c-5.88,0-10.32-2.12-13.31-6.35c-2.99-4.23-4.48-10.53-4.48-18.88c0-8.76,1.46-15.18,4.38-19.27
						c2.92-4.09,7.39-6.13,13.41-6.13c5.86,0,10.29,2.13,13.29,6.38C425.51,83.5,427.01,89.84,427.01,98.26z M404.67,98.26
						c0,5.57,0.35,9.4,1.04,11.49c0.7,2.09,1.86,3.13,3.5,3.13c1.66,0,2.83-1.08,3.52-3.23c0.68-2.16,1.03-5.95,1.03-11.39
						c0-5.46-0.35-9.28-1.04-11.47c-0.7-2.19-1.87-3.28-3.5-3.28c-1.64,0-2.81,1.06-3.5,3.17
						C405.02,88.79,404.67,92.65,404.67,98.26z"/>
					<path class="st6" d="M470.82,113.29h-5.42v9.53h-13.14v-9.53h-19.64v-9.77l20.48-29.95h12.3v29.78h5.42V113.29z M452.25,103.35
						v-5.73c0-1.08,0.04-2.53,0.12-4.36c0.08-1.83,0.14-2.79,0.18-2.88h-0.37c-0.76,1.73-1.63,3.35-2.59,4.85l-5.46,8.12H452.25z"/>
				</g>
			</g>
			<g>
				<g>
					<g>
						<path class="st3" d="M599.05,275.09h29.26c2.83,0,5.12-2.29,5.12-5.12V240.7c0-2.83-2.29-5.12-5.12-5.12h-29.26
							c-2.83,0-5.12,2.29-5.12,5.12v29.26C593.93,272.8,596.22,275.09,599.05,275.09z"/>
					</g>
					<g>
						<g>
							<path class="st7" d="M626.41,266.43c-0.15,0.05-0.31,0.08-0.47,0.08l-24.52,0.01c-0.51,0-0.99-0.28-1.25-0.72
								c-0.26-0.44-0.26-0.99,0-1.44l12.25-21.24c0.26-0.44,0.73-0.72,1.24-0.72c0.51,0,0.99,0.27,1.25,0.72l12.27,21.23
								c0.26,0.44,0.26,0.99,0,1.44C627.01,266.09,626.73,266.32,626.41,266.43z M602.1,264.69l23.17-0.01l-11.59-20.06
								L602.1,264.69z"/>
						</g>
						<path class="st7" d="M613.68,260.47L613.68,260.47c-0.46,0-0.85-0.36-0.87-0.83l-0.5-8.36c-0.04-0.78,0.58-1.42,1.36-1.42l0,0
							c0.78,0,1.4,0.65,1.36,1.42l-0.49,8.36C614.52,260.11,614.14,260.47,613.68,260.47z"/>
						<path class="st7" d="M614.56,262.49c0,0.49-0.4,0.88-0.88,0.88c-0.49,0-0.88-0.4-0.88-0.88c0-0.49,0.4-0.88,0.88-0.88
							C614.17,261.6,614.56,262,614.56,262.49z"/>
					</g>
				</g>
			</g>
			<path class="st8" d="M96.44,204.5c0,1.23-1,2.23-2.23,2.23c-1.23,0-2.23-1-2.23-2.23c0-1.23,1-2.23,2.23-2.23
				C95.44,202.27,96.44,203.27,96.44,204.5z"/>
			<path class="st8" d="M470.82,323.31c0,1.23-1,2.23-2.23,2.23c-1.23,0-2.23-1-2.23-2.23c0-1.23,1-2.23,2.23-2.23
				C469.82,321.09,470.82,322.08,470.82,323.31z"/>
			<path class="st8" d="M623.94,140.32c0,1.23-1,2.23-2.23,2.23s-2.23-1-2.23-2.23c0-1.23,1-2.23,2.23-2.23
				S623.94,139.09,623.94,140.32z"/>
			<path class="st8" d="M503.66,71.4c0,1.23-1,2.23-2.23,2.23c-1.23,0-2.23-1-2.23-2.23c0-1.23,1-2.23,2.23-2.23
				C502.66,69.18,503.66,70.17,503.66,71.4z"/>
			<g>
				<line class="st8" x1="619.49" y1="213.2" x2="619.49" y2="220.1"/>
				<line class="st8" x1="622.94" y1="216.65" x2="616.03" y2="216.65"/>
			</g>
			<g>
				<line class="st8" x1="439.1" y1="346.14" x2="439.1" y2="353.04"/>
				<line class="st8" x1="442.55" y1="349.59" x2="435.65" y2="349.59"/>
			</g>
			<g>
				<line class="st8" x1="293.16" y1="58.68" x2="293.16" y2="65.58"/>
				<line class="st8" x1="296.61" y1="62.13" x2="289.71" y2="62.13"/>
			</g>
			<g>
				<line class="st8" x1="138.7" y1="125.37" x2="138.7" y2="132.28"/>
				<line class="st8" x1="142.15" y1="128.83" x2="135.25" y2="128.83"/>
			</g>
			<g>
				<line class="st8" x1="127.46" y1="284.25" x2="127.46" y2="291.15"/>
				<line class="st8" x1="130.91" y1="287.7" x2="124.01" y2="287.7"/>
			</g>
			<g>
				<line class="st8" x1="518.61" y1="97.75" x2="518.61" y2="104.65"/>
				<line class="st8" x1="522.06" y1="101.2" x2="515.16" y2="101.2"/>
			</g>
			<path class="st2" d="M178.8,244.96h-69.05c-1.21,0-2.18-0.98-2.18-2.18l0,0c0-1.21,0.98-2.18,2.18-2.18h69.05
				c1.21,0,2.18,0.98,2.18,2.18l0,0C180.99,243.98,180.01,244.96,178.8,244.96z"/>
			<path class="st2" d="M585.37,189.82h-69.05c-1.21,0-2.18-0.98-2.18-2.18l0,0c0-1.21,0.98-2.18,2.18-2.18h69.05
				c1.21,0,2.18,0.98,2.18,2.18l0,0C587.55,188.84,586.57,189.82,585.37,189.82z"/>
			<path class="st7" d="M595.47,204.5h-25.53c-0.6,0-1.09-0.49-1.09-1.09l0,0c0-0.6,0.49-1.09,1.09-1.09h25.53
				c0.6,0,1.09,0.49,1.09,1.09l0,0C596.57,204.01,596.08,204.5,595.47,204.5z"/>
			<path class="st7" d="M527.93,152.47H502.4c-0.6,0-1.09-0.49-1.09-1.09l0,0c0-0.6,0.49-1.09,1.09-1.09h25.53
				c0.6,0,1.09,0.49,1.09,1.09l0,0C529.02,151.98,528.53,152.47,527.93,152.47z"/>
			<path class="st7" d="M153.14,225.66h-19.53c-0.6,0-1.09-0.49-1.09-1.09l0,0c0-0.6,0.49-1.09,1.09-1.09h19.53
				c0.6,0,1.09,0.49,1.09,1.09l0,0C154.23,225.17,153.74,225.66,153.14,225.66z"/>
			<g>
				<path class="st9" d="M547.25,129.28h21.14c2.04,0,3.7-1.66,3.7-3.7v-21.14c0-2.04-1.66-3.7-3.7-3.7h-21.14
					c-2.04,0-3.7,1.66-3.7,3.7v21.14C543.55,127.62,545.21,129.28,547.25,129.28z"/>
				<g>
					<g>
						<path class="st7" d="M561.86,113.81l-0.5,2.45h2.73v2.18h-3.14l-0.81,4.29h-2.32l0.82-4.29h-3l-0.8,4.29h-2.27l0.78-4.29
							h-2.51v-2.18h2.93l0.5-2.45h-2.66v-2.21h3.05l0.81-4.3h2.31l-0.81,4.3H560l0.82-4.3h2.27l-0.82,4.3h2.54v2.21H561.86z
							 M556.05,116.26h3.02l0.5-2.45h-3.02L556.05,116.26z"/>
					</g>
				</g>
			</g>
		</g>
		<g>
			<g>
				<path class="st10" d="M317.5,326.72l-20.05-131.49h-90.3l21.64,139.34c1.47,9.44,9.34,16.09,19.06,16.09h151.83l1.12-12.77
					h-70.12C323.95,337.89,318.5,333.27,317.5,326.72z"/>
				<path class="st11" d="M232.04,326.72l-19.31-126.63c-0.44-2.85-2.81-4.87-5.75-4.87h-0.18c-4.11,0-7.48,3.85-6.86,7.85
					l20.43,131.49c1.47,9.44,9.34,16.09,19.06,16.09h97.79l1.12-12.77h-93.12C238.49,337.89,233.03,333.27,232.04,326.72z"/>
				<g>
					<g>
						<g>
							<line class="st12" x1="293.16" y1="350.65" x2="293.16" y2="422.43"/>
						</g>
						<g>
							<g>
								<path class="st12" d="M252.93,428.77L252.93,428.77c0-3.5,2.84-6.34,6.34-6.34h67.79c3.5,0,6.34,2.84,6.34,6.34v0"/>
							</g>
							<g>
								<path class="st12" d="M286.23,428.77L286.23,428.77c0-3.5,2.84-6.34,6.34-6.34"/>
							</g>
							<g>
								<g>
									<path class="st11" d="M259.33,435.17c0,3.54-2.87,6.4-6.4,6.4c-3.54,0-6.4-2.87-6.4-6.4c0-3.54,2.87-6.4,6.4-6.4
										C256.46,428.77,259.33,431.64,259.33,435.17z"/>
								</g>
								<g class="st13">
									<path class="st14" d="M255.28,435.17c0,1.3-1.05,2.35-2.35,2.35s-2.35-1.05-2.35-2.35c0-1.3,1.05-2.35,2.35-2.35
										S255.28,433.87,255.28,435.17z"/>
								</g>
							</g>
							<g>
								<path class="st11" d="M292.63,435.17c0,3.54-2.87,6.4-6.4,6.4c-3.54,0-6.4-2.87-6.4-6.4c0-3.54,2.87-6.4,6.4-6.4
									C289.76,428.77,292.63,431.64,292.63,435.17z"/>
							</g>
							<g class="st13">
								<path class="st14" d="M288.58,435.17c0,1.3-1.05,2.35-2.35,2.35c-1.3,0-2.35-1.05-2.35-2.35c0-1.3,1.05-2.35,2.35-2.35
									C287.52,432.82,288.58,433.87,288.58,435.17z"/>
							</g>
							<g>
								<g>
									<path class="st11" d="M339.8,435.17c0,3.54-2.87,6.4-6.4,6.4c-3.54,0-6.4-2.87-6.4-6.4c0-3.54,2.87-6.4,6.4-6.4
										C336.93,428.77,339.8,431.64,339.8,435.17z"/>
								</g>
								<g class="st13">
									<path class="st14" d="M335.75,435.17c0,1.3-1.05,2.35-2.35,2.35c-1.3,0-2.35-1.05-2.35-2.35c0-1.3,1.05-2.35,2.35-2.35
										C334.7,432.82,335.75,433.87,335.75,435.17z"/>
								</g>
							</g>
						</g>
					</g>
				</g>
			</g>
			<g>
				<g>
					<path class="st15" d="M363.74,209.34l22.89-34.19l7.09,1.48c-5.42,18.25-9,25.47-9,25.47"/>
					<path class="st15" d="M390.07,182.29l3.65-5.66c0,0,6.79-1.56,9.26-2.82c2.47-1.26,4.11-3.49,4.8-5.38
						c0.53-1.45,0.3-5.69-0.32-5.76c-1.46-0.16-4.37,5.28-5.74,5.6c-1.36,0.32-5.79-0.01-8.22,0.31c-4.09,0.54-5.82,4.37-5.82,4.37
						l-3.74,6.79"/>
					<polyline class="st16" points="378.7,185.16 382.71,179.33 393.11,184 389.81,192.85 					"/>
					<path class="st17" d="M295.19,172.97c0,0,16.95-7.8,31.87,5.48c14.93,13.28,25.03,25.61,30.51,29.61l22.49-25.87l12.56,5.9
						c-3.31,18.73-12.61,48.61-35.35,51.69c-24.61,3.33-60.7-27.01-60.7-27.01"/>
					<line class="st18" x1="350.28" y1="216.65" x2="357.57" y2="208.06"/>
				</g>
				<path class="st19" d="M386.23,430.76l-1.9,7.31c-0.46,1.77,0.88,3.51,2.71,3.51h22.14c1.33,0,2.41-1.08,2.41-2.41l0,0
					c0-1.05-0.68-1.98-1.68-2.3l-15.13-6.11"/>
				<path class="st15" d="M373.47,316.62c-3.54,37.15,12.76,114.14,12.76,114.14s3.87,4.68,8.55,0c0,0,3.93-73.41,8.06-106.41"/>
				<path class="st20" d="M320.65,273.1l25.41,13.33v0.26c0,0,51.85-3.48,59.7,15.03c12.28,28.99,14.37,123.27,14.37,123.27h-37.95
					c0,0-14.13-79.19-18.95-84.02c-4.83-4.83-24.74-4.47-61.36-4.47c-41.13,0-21.05-53.03-5.74-57.58"/>
				<path class="st21" d="M384.8,424.99c0,0-11.28-81.72-19.57-87.71c-10.12-7.32-57.92-2.54-57.92-2.54"/>
				<path class="st19" d="M306.65,430.76l-1.9,7.31c-0.46,1.77,0.88,3.51,2.71,3.51h22.14c1.33,0,2.41-1.08,2.41-2.41l0,0
					c0-1.05-0.68-1.98-1.68-2.3l-15.13-6.11"/>
				<path class="st15" d="M310.33,316.62c-3.54,37.15-3.69,114.14-3.69,114.14s3.87,4.68,8.55,0c0,0,13.32-73.41,17.46-106.41"/>
				<g>
					<path class="st22" d="M275.83,284.77c0,0,66.65,1.07,75.37,21.27c10.72,24.83-6.95,118.95-6.95,118.95h-40.17v-84.2
						c0-1.63-1.28-3.1-2.91-3.05c-5.56,0.15-17.98,0.15-33.74,0.15c-41.13,0-21.05-64.01-5.74-68.56"/>
					<path class="st21" d="M275.83,284.77c0,0,66.65,1.07,75.37,21.27c2.91,6.73,4.42,18.19,3.64,31.85"/>
					<path class="st23" d="M309.68,424.99c0,0,0.41-84.52-1.53-89.04c-2.7-6.27-11.91-3.19-33.27-3.19
						c-41.13,0-24.37-58.88-9.06-63.43"/>
					<path class="st23" d="M250.23,295.06c0,0,21.12,0.51,24.31-2.69c3.2-3.2,0-17.7,0-17.7"/>
					<path class="st24" d="M249.71,297.89c0,0,24.11,0.51,27.76-2.69s0-17.73,0-17.73"/>
				</g>
				<g>
					<path class="st17" d="M245.64,196.79c0,0-5.06,89.9,2.6,89.9c7.66,0,92.83-0.26,97.82-0.26s-6.69-76.88-23.51-93.12
						c0,0-24.95-27.07-35.94-24.48C275.61,171.42,245.64,196.79,245.64,196.79z"/>
					<line class="st25" x1="340.65" y1="237.68" x2="330.08" y2="194.33"/>
				</g>
				<g>
					<path class="st15" d="M202.56,213.07l-22.89-34.19l-7.09,1.48c5.42,18.25,9,25.47,9,25.47"/>
					<path class="st15" d="M176.23,186.01l-3.65-5.66c0,0-6.79-1.56-9.26-2.82c-2.47-1.26-4.11-3.49-4.8-5.38
						c-0.53-1.45-0.3-5.69,0.32-5.76c1.46-0.16,4.37,5.28,5.74,5.6c1.36,0.32,5.78-0.01,8.22,0.31c4.09,0.54,5.82,4.37,5.82,4.37
						l3.74,6.79"/>
					<polyline class="st16" points="187.6,188.89 183.58,183.06 173.18,187.73 176.48,196.58 					"/>
					<path class="st17" d="M277.11,173.48c0,0-16.75-11.91-34.04,2.72c-16.12,13.63-26.86,41.14-30.46,41.14
						c-2.5,0-18.01-19.78-27.27-31.88l-11.01,5.89c6.94,21.19,22.07,57.24,44.71,57.24c17.76,0,54.24-41.61,54.24-41.61"/>
					<line class="st26" x1="244.18" y1="235.28" x2="271.17" y2="212.77"/>
				</g>
				<g>
					<polyline class="st27" points="278.72,175.61 294.82,192.85 296.92,172.92 					"/>
					<path class="st15" d="M291.65,158.2l4.53,9.92c0,0,1.82,5.68-5.72,8.26c-8.27,2.82-13.34-2.9-13.34-2.9l-1.19-15.57"/>
					<path class="st7" d="M276.68,167.81c0,0,5.96,7.46,13.78,8.57l-5.68,8.43c-4.6-2.59-10.23-12.65-10.23-12.65L276.68,167.81z"/>
					<path class="st7" d="M295.7,166.76c0,0-0.95,5.33-5.25,9.62l6.47,4.89c1.49-3.66,1.32-9.36,1.32-9.36L295.7,166.76z"/>
					<path class="st15" d="M298.36,142.18c0,0,4.27,16.36-2.14,20.5c-6.42,4.14-17.58-2.16-18.22-4.21
						c-0.64-2.05-3.56-19.52,0.63-20.83C286.06,135.31,296.17,135.2,298.36,142.18z"/>
					<g>
						<g>
							<path class="st19" d="M298.22,147.49c0.11,0.45-0.17,0.9-0.62,1c-0.45,0.11-0.9-0.17-1-0.62c-0.11-0.45,0.17-0.9,0.62-1
								C297.66,146.76,298.11,147.04,298.22,147.49z"/>
							<g>
								<path class="st19" d="M296.79,142.61c0.28,0.04,1.54,0.17,1.27,0.79c-0.12,0.28-0.56,0.27-0.8,0.25
									c-0.26-0.01-0.52-0.05-0.76,0.03c0.07,0.07,0.12,0.16,0.16,0.25c0.08,0.19-0.54,0.21-0.61,0.21c-0.62,0-1.36-0.11-2.11,0.39
									C294.42,142.77,296.33,142.54,296.79,142.61z"/>
							</g>
							<path class="st19" d="M287.93,149.75c0.03,0.46,0.42,0.81,0.88,0.79c0.46-0.03,0.81-0.42,0.79-0.88
								c-0.03-0.46-0.42-0.81-0.88-0.79C288.26,148.9,287.91,149.29,287.93,149.75z"/>
							<g>
								<path class="st19" d="M285.46,146.45c-0.6,0.32-1.11,0.76-0.97,1.26c0.11,0.4,0.5,0.3,0.75,0.1
									c0.41-0.32,0.87-0.57,1.37-0.73c-0.22,0.18-0.35,0.47-0.33,0.75c1.56-0.15,2.92-1.5,3.09-3.06
									c-0.01,0.11-1.02,0.73-1.17,0.8C287.31,145.99,286.34,145.98,285.46,146.45z"/>
							</g>
						</g>
						<path class="st28" d="M294.06,148.46c0,0,2.28,5.74,1.47,6.24c-0.81,0.5-3.67,0.43-3.67,0.43"/>
					</g>
					<path class="st28" d="M294.15,163.63c0,0-6.5,2.51-12.21-2.05"/>
					<path class="st28" d="M290.45,159.79c0,0,0.58-2.53,4.74-2.53"/>
					<g>
						<path class="st19" d="M301.97,133.4c-0.07-0.78-0.19-1.61-0.73-2.17c-0.61-0.65-1.6-0.78-2.49-0.79
							c-3.14-0.02-6.27,0.98-8.82,2.81c0.7-0.61,1.39-1.21,2.09-1.82c0.55-0.48,1.79-1.24,1.19-2.14c-0.52-0.79-2.01-0.34-2.77-0.35
							c-3.58-0.04-7.03,1.23-10.33,2.5c-1.63,0.62-3.26,1.26-4.73,2.19c-1.47,0.93-2.78,2.2-3.49,3.79
							c-0.62,1.39-0.74,2.96-0.73,4.48c0.02,2.74,0.45,5.46,0.88,8.17c0.47,2.95,1.18,8.77,5.14,9.13c0.77,0.07,1.61,0.12,2.24-0.34
							c0.62-0.45,0.83-1.26,0.93-2.02c0.15-1.23,0.06-2.49-0.23-3.69c0.74,0.4,1.45,1.08,2.28,0.95c0.28-0.04,0.56-0.19,0.65-0.45
							c0.06-0.17,0.04-0.35,0.02-0.53c-0.31-2.83-0.48-5.64-0.66-8.48c4.06-0.86,8.14-1.6,12.25-2.22c1.82-0.27,3.75-0.57,5.16-1.75
							C301.85,138.99,302.2,136.02,301.97,133.4z"/>
					</g>
					<g>
						<path class="st15" d="M281,154.24c-0.67-1.66-1.85-3.67-3.7-2.54c-0.65,0.4-1.02,1.25-1.27,2.08
							c-0.85,2.75,1.13,6.99,3.82,6.59c1.31-0.19,2.04-1.75,2.58-3.04"/>
					</g>
				</g>
			</g>
		</g>
		<g>
			<g>
				<path class="st29" d="M526.15,332.89c-0.01-8.91,3.8-17.75,10.28-23.86c3.2-3.01,7.02-5.34,11.14-6.85
					c2.32-0.86,13.45-1.7,13.45-1.7s-1.3,8.49-3.51,12.77C552.34,323.23,542.12,331.61,526.15,332.89"/>
			</g>
			<g>
				<path class="st30" d="M558.88,358.24c4.02-4.93,9.84-8.37,16.1-9.52c6.26-1.15,12.92,0,18.43,3.18c0.18,0.1,0.37,0.23,0.42,0.43
					c0.06,0.24-0.11,0.47-0.28,0.65c-5.17,5.79-13.19,8.91-20.91,8.14C569.24,360.78,562.12,359.29,558.88,358.24"/>
			</g>
			<g>
				<path class="st29" d="M567.82,344.69c0.01-7.77,2.59-14.74,7.15-19.3s11.06-6.68,17.99-5.86c0.23,0.03,0.48,0.07,0.66,0.28
					c0.22,0.25,0.23,0.6,0.21,0.89c-0.39,9.35-5.08,17.09-12.23,20.2C578.46,342.27,571.33,344.23,567.82,344.69"/>
			</g>
			<g>
				<path class="st30" d="M579.88,330.8c3.08-4.96,6.82-9.5,11.1-13.46c1.72-1.59,3.54-3.11,5.61-4.22
					c6.69-3.59,14.94-2.48,22.13-0.05c-2.86,5.43-6.59,10.75-12.08,13.5c-2.43,1.22-5.09,1.88-7.74,2.47
					C593.63,330.22,585.22,330.1,579.88,330.8"/>
			</g>
			<g>
				<path class="st29" d="M576.05,317.83c-13.38-7.01-15.36-21.63-15.7-27.04c-0.21-3.39,0.01-7.16,2.83-9.6
					C579.77,287.04,584.01,298.26,576.05,317.83"/>
			</g>
			<g>
				<path class="st29" d="M518.39,315.72c1.04-7.12,2-14.77-1.24-21.2c-1.16-2.3-2.81-4.33-4.61-6.18
					c-4.35-4.48-10.05-8.18-16.29-8.19c-1.12,6.67,0.23,13.73,3.75,19.51c3.51,5.78,9.15,10.24,15.59,12.31"/>
			</g>
			<g>
				<path class="st30" d="M557.31,362.3c-7.46-2.49-13.8-8.17-17.09-15.32c-3.29-7.14-3.5-15.65-0.55-22.94
					c0.13-0.32,0.3-0.68,0.64-0.79c0.32-0.1,0.65,0.06,0.94,0.23C552.78,330.11,560.68,349.42,557.31,362.3"/>
			</g>
			<g>
				<path class="st30" d="M525.94,322.97c-2.15-6.23-2.04-13.21,0.32-19.37c2.36-6.15,6.94-11.43,12.7-14.62
					c2.35-1.3,4.9-2.28,6.99-3.98c0.71,3.13,1.18,6.31,1.42,9.51c0.24,3.16,0.23,6.39-0.61,9.45c-2.17,7.91-9.46,13.29-16.78,16.98"
					/>
			</g>
			<g>
				<path class="st30" d="M516.27,321.77c-12.02,1.46-26.81-3.39-33.24-14.71C503.58,296.61,516.27,312.59,516.27,321.77"/>
			</g>
			<g>
				<path class="st30" d="M523.28,348.58c-2.69-9.23-9.79-16.8-18.33-19.56c-8.54-2.77-18.29-0.65-25.2,5.47
					c-0.29,0.25-0.6,0.58-0.57,0.98c0.02,0.24,0.15,0.45,0.28,0.64c4.59,6.64,11.92,10.56,19.41,12.21
					c7.49,1.65,15.23,1.26,22.86,0.69"/>
			</g>
			<g>
				<g>
					<path class="st31" d="M507.83,299.37c6.23,6.23,10.12,14.13,13.02,22.35c3.01,8.51,5.2,17.33,6.95,26.18
						c3.69,18.67,4.66,37.57,6.81,56.43c0.03,0.27,0.44,0.28,0.43,0c-0.82-19.21-2.89-38.7-6.71-57.54
						c-1.87-9.2-4.22-18.39-7.57-27.17c-2.9-7.58-6.79-14.81-12.72-20.45C507.9,299.04,507.7,299.24,507.83,299.37L507.83,299.37z"
						/>
				</g>
			</g>
			<g>
				<g>
					<path class="st31" d="M529.93,356.32c-4.61-7.47-12.26-11.89-20.21-15.12c-8.88-3.61-18.95-5.87-28.58-5.23
						c-0.23,0.02-0.24,0.36,0,0.37c17.52,0.78,37.58,5.03,48.37,20.22C529.69,356.83,530.1,356.6,529.93,356.32L529.93,356.32z"/>
				</g>
			</g>
			<g>
				<g>
					<path class="st31" d="M526.29,338.78c-0.08-7.04-0.81-14.1,0.57-21.07c1.29-6.48,3.88-12.35,7.75-17.69
						c0.11-0.15-0.14-0.35-0.26-0.2c-9.41,10.58-9.52,25.7-8.29,38.96C526.08,338.92,526.3,338.93,526.29,338.78L526.29,338.78z"/>
				</g>
			</g>
			<g>
				<g>
					<path class="st31" d="M498.41,310.92c5.14,0.64,9.69,4.09,13.57,7.29c3.87,3.18,7.33,6.83,11.19,10.02
						c0.16,0.13,0.38-0.08,0.23-0.23c-3.89-3.89-8.07-7.66-12.42-11.03c-3.66-2.83-7.83-5.72-12.57-6.15
						C498.34,310.81,498.34,310.91,498.41,310.92L498.41,310.92z"/>
				</g>
			</g>
			<g>
				<g>
					<path class="st31" d="M552.62,379.9c2.82-14.63,8.7-28.01,18.46-39.37c4.71-5.48,10.12-10.35,16.1-14.4
						c6.27-4.26,12.96-7.15,20.02-9.81c0.29-0.11,0.18-0.55-0.13-0.47c-14.19,3.7-27.27,13.5-36.64,24.54
						c-9.35,11.01-16.44,25-18.18,39.46C552.23,380.06,552.58,380.11,552.62,379.9L552.62,379.9z"/>
				</g>
			</g>
			<g>
				<g>
					<path class="st31" d="M568.88,292.52c7.03,14.8,9.64,31.59,2.52,46.82c-0.14,0.3,0.28,0.56,0.45,0.26
						c8.55-14.22,4.4-33.37-2.61-47.29C569.11,292.07,568.76,292.28,568.88,292.52L568.88,292.52z"/>
				</g>
			</g>
			<path id="XMLID_547_" class="st32" d="M578.03,370.19v11.72c0,46.46-12.23,59.67-12.23,59.67h-37.87c0,0-12.23-13.21-12.23-59.67
				v-11.72H578.03z"/>
		</g>
		<g>
			<g>
				<line class="st12" x1="171.35" y1="441.57" x2="203.47" y2="287.58"/>
				<line class="st12" x1="235.58" y1="441.57" x2="203.47" y2="287.58"/>
			</g>
			<g>
				<line class="st12" x1="495.72" y1="441.57" x2="527.84" y2="287.58"/>
				<line class="st12" x1="559.96" y1="441.57" x2="527.84" y2="287.58"/>
			</g>
			<rect x="172.39" y="278.37" class="st33" width="383.62" height="9.21"/>
			<g>
				<path class="st10" d="M537.52,260.81H401.96c-2.42,0-4.25-2.19-3.83-4.57l15.58-87.61c0.49-2.78,2.91-4.8,5.73-4.8H555
					c2.42,0,4.25,2.19,3.83,4.57l-15.58,87.61C542.76,258.79,540.34,260.81,537.52,260.81z"/>
				<path class="st34" d="M540.68,260.81H405.11c-2.42,0-4.25-2.19-3.83-4.57l15.58-87.61c0.49-2.78,2.91-4.8,5.73-4.8h135.57
					c2.42,0,4.25,2.19,3.83,4.57l-15.58,87.61C545.91,258.79,543.49,260.81,540.68,260.81z"/>
				<path class="st35" d="M515.73,260.81h-78.3c-1.4,0-2.45-1.26-2.21-2.64l9-50.6c0.29-1.6,1.68-2.77,3.31-2.77h78.3
					c1.4,0,2.45,1.26,2.21,2.64l-9,50.6C518.75,259.64,517.36,260.81,515.73,260.81z"/>
				<path class="st36" d="M517.61,260.81h-78.3c-1.4,0-2.45-1.26-2.21-2.64l9-50.6c0.29-1.6,1.68-2.77,3.31-2.77h78.3
					c1.4,0,2.45,1.26,2.21,2.64l-9,50.6C520.63,259.64,519.24,260.81,517.61,260.81z"/>
				<rect x="468.48" y="231.05" class="st14" width="31.78" height="29.76"/>
				<path class="st10" d="M498.43,231.05h-29.96v8.55l8.18,33.94h31.8L498.43,231.05z M490.74,264.48c-3.56,0-7.33-4.15-8.41-9.28
					c-1.08-5.12,0.93-9.28,4.49-9.28s7.33,4.15,8.41,9.28C496.31,260.33,494.3,264.48,490.74,264.48z"/>
				<path class="st10" d="M450.95,273.54h71.18v4.83h-76.02l0,0C446.12,275.7,448.28,273.54,450.95,273.54z"/>
				<rect x="465.23" y="273.54" class="st34" width="56.91" height="4.83"/>
				<path class="st34" d="M500.27,231.05h-31.8l10.02,42.49h31.8L500.27,231.05z M492.47,264.48c-3.56,0-7.33-4.15-8.41-9.28
					c-1.08-5.12,0.93-9.28,4.49-9.28c3.56,0,7.33,4.15,8.41,9.28C498.04,260.33,496.03,264.48,492.47,264.48z"/>
				<g class="st37">
					<polygon class="st14" points="426.02,172.46 424.14,183.05 426.02,183.05 427.9,172.46 					"/>
					<polygon class="st14" points="431.47,172.46 429.59,183.05 431.47,183.05 433.35,172.46 					"/>
					<polygon class="st14" points="436.92,172.46 435.04,183.05 436.92,183.05 438.8,172.46 					"/>
					<polygon class="st14" points="442.37,172.46 440.49,183.05 442.37,183.05 444.25,172.46 					"/>
					<polygon class="st14" points="447.82,172.46 445.94,183.05 447.82,183.05 449.7,172.46 					"/>
				</g>
				<g class="st37">
					<polygon class="st14" points="497.55,172.46 495.67,183.05 497.55,183.05 499.43,172.46 					"/>
					<polygon class="st14" points="503.28,172.46 501.39,183.05 503.28,183.05 505.16,172.46 					"/>
					<polygon class="st14" points="509,172.46 507.12,183.05 509,183.05 510.89,172.46 					"/>
					<polygon class="st14" points="514.73,172.46 512.85,183.05 514.73,183.05 516.61,172.46 					"/>
					<polygon class="st14" points="520.46,172.46 518.58,183.05 520.46,183.05 522.34,172.46 					"/>
					<polygon class="st14" points="526.19,172.46 524.3,183.05 526.19,183.05 528.07,172.46 					"/>
					<polygon class="st14" points="531.91,172.46 530.03,183.05 531.91,183.05 533.8,172.46 					"/>
					<polygon class="st14" points="537.64,172.46 535.76,183.05 537.64,183.05 539.52,172.46 					"/>
					<polygon class="st14" points="543.37,172.46 541.48,183.05 543.37,183.05 545.25,172.46 					"/>
					<polygon class="st14" points="549.09,172.46 547.21,183.05 549.09,183.05 550.98,172.46 					"/>
				</g>
			</g>
			<g>
				<g class="st38">
					<linearGradient id="SVGID_1_" gradientUnits="userSpaceOnUse" x1="293.1257" y1="254.3645" x2="293.1257" y2="226.7599">
						<stop  offset="0" style="stop-color:#FFFFFF;stop-opacity:0.1"/>
						<stop  offset="1" style="stop-color:#FFFFFF;stop-opacity:0.4"/>
					</linearGradient>
					<path class="st39" d="M280.45,254.36c0,0,0.88-0.16,1.24-0.66c0.74-1.03-0.49-2.12-1.29-2.64c-1.03-0.66-2.44-0.88-2.94-2.14
						c-0.56-1.42,0.41-3,1.58-3.78c0.99-0.65,2.15-0.98,3.26-1.4c1.24-0.46,2.49-1.21,3.21-2.37c0.9-1.45,0.72-3.31,0.84-4.94
						c0.46-6.38,6.99-9.55,12.48-9.68c2.75-0.06,6.95,0.92,8.77,3.05c0.61,0.72,1.08,1.57,1.25,2.5c0.27,1.44-0.29,2.77-1.22,3.84
						c-0.94,1.08-2.24,1.71-3.27,2.68c-1.07,1-0.31,2.06-0.55,3.26c-0.27,1.33-1.16,1.9-2.32,2.54c-2.44,1.36-5.31,1.7-7.96,2.44
						c-0.83,0.23-1.66,0.51-2.33,1.05c-0.87,0.7-1.36,1.74-2.01,2.64c-1.2,1.63-3.01,2.8-4.99,3.2"/>
				</g>
				<g>
					<g>
						<path class="st40" d="M295.74,270.43h-5.21v-2.49h5.21c1.68,0,3.05-1.37,3.05-3.05v-4.29c0-1.68-1.37-3.05-3.05-3.05h-5.21
							v-2.49h5.21c3.05,0,5.53,2.48,5.53,5.53v4.29C301.27,267.95,298.79,270.43,295.74,270.43z"/>
					</g>
				</g>
				<path class="st40" d="M288.31,276.97h-8.79c-3.38,0-6.12-2.74-6.12-6.12v-19.29h21.04v19.29
					C294.43,274.23,291.69,276.97,288.31,276.97z"/>
				<path class="st36" d="M269.99,273.42c0,0,0.2,4.95,7.89,4.95h12.06c7.69,0,7.89-4.95,7.89-4.95H269.99z"/>
			</g>
			<g id="XMLID_30_">
				<g id="XMLID_96_">
					<g>
						<rect id="XMLID_143_" x="327.75" y="276.39" class="st10" width="111.28" height="1.98"/>
						<rect id="XMLID_142_" x="331.56" y="274.8" class="st10" width="7.97" height="1.6"/>
						<rect id="XMLID_141_" x="343.63" y="274.8" class="st10" width="7.97" height="1.6"/>
						<rect id="XMLID_140_" x="355.7" y="274.8" class="st10" width="7.97" height="1.6"/>
						<rect id="XMLID_139_" x="367.77" y="274.8" class="st10" width="7.97" height="1.6"/>
						<rect id="XMLID_138_" x="379.84" y="274.8" class="st10" width="7.97" height="1.6"/>
						<rect id="XMLID_137_" x="391.91" y="274.8" class="st10" width="7.97" height="1.6"/>
						<rect id="XMLID_136_" x="403.98" y="274.8" class="st10" width="7.97" height="1.6"/>
						<rect id="XMLID_135_" x="416.05" y="274.8" class="st10" width="7.97" height="1.6"/>
						<rect id="XMLID_134_" x="428.13" y="274.8" class="st10" width="7.97" height="1.6"/>
					</g>
				</g>
				<g id="XMLID_51_">
					<g>
						<rect id="XMLID_133_" x="329.21" y="276.39" class="st34" width="111.28" height="1.98"/>
						<rect id="XMLID_132_" x="333.01" y="274.8" class="st34" width="7.97" height="1.6"/>
						<rect id="XMLID_131_" x="345.08" y="274.8" class="st34" width="7.97" height="1.6"/>
						<rect id="XMLID_129_" x="357.16" y="274.8" class="st34" width="7.97" height="1.6"/>
						<rect id="XMLID_127_" x="369.23" y="274.8" class="st34" width="7.97" height="1.6"/>
						<rect id="XMLID_122_" x="381.3" y="274.8" class="st34" width="7.97" height="1.6"/>
						<rect id="XMLID_121_" x="393.37" y="274.8" class="st34" width="7.97" height="1.6"/>
						<rect id="XMLID_120_" x="405.44" y="274.8" class="st34" width="7.97" height="1.6"/>
						<rect id="XMLID_119_" x="417.51" y="274.8" class="st34" width="7.97" height="1.6"/>
						<rect id="XMLID_118_" x="429.58" y="274.8" class="st34" width="7.97" height="1.6"/>
					</g>
				</g>
			</g>
		</g>
		<g>
			<g>
				<path class="st29" d="M170.86,353.02c1.38-5.49,0.77-11.46-1.7-16.55c-2.47-5.09-6.78-9.27-11.95-11.57
					c-2.11-0.94-4.37-1.59-6.27-2.89c-0.37,2.73-0.54,5.49-0.51,8.24c0.03,2.73,0.27,5.49,1.22,8.04
					c2.44,6.61,9.08,10.67,15.62,13.29"/>
			</g>
			<g>
				<g>
					<path class="st31" d="M171.66,370.74c0.2-12.79,0.37-27.39-9.69-36.91c-0.16-0.15-0.38,0.07-0.24,0.24
						c4.51,5.24,7.74,11.58,8.7,18.48c0.84,6.03,0.5,12.14,1,18.19C171.45,370.88,171.66,370.88,171.66,370.74L171.66,370.74z"/>
				</g>
			</g>
			<g>
				<path class="st29" d="M155.32,387.51c-0.96-7.59-5.17-14.71-11.36-19.21c-3.05-2.22-6.56-3.78-10.24-4.63
					c-2.07-0.48-11.64,0.02-11.64,0.02s2.03,7.09,4.38,10.5C131.95,382.13,141.57,388.16,155.32,387.51"/>
			</g>
			<g>
				<path class="st30" d="M146.95,363.06c-0.25-4.59-1.09-9.15-2.5-13.51c-0.57-1.75-1.23-3.49-2.21-5.04
					c-3.16-5.02-9.07-7.36-14.76-8.39c-0.07,4.84,0.48,9.93,3.15,13.91c1.18,1.76,2.72,3.22,4.27,4.63
					C137.97,357.47,143.63,360.56,146.95,363.06"/>
			</g>
			<g>
				<path class="st30" d="M179.25,346.34c-0.89-6.12-1.72-12.69,1.07-18.21c1-1.98,2.42-3.72,3.96-5.31
					c3.74-3.85,8.63-7.03,13.99-7.04c0.96,5.73-0.2,11.79-3.22,16.76C192.04,337.51,184.78,344.55,179.25,346.34"/>
			</g>
			<g>
				<path class="st30" d="M169.42,381.88c5.69,1.18,11.84-0.09,16.6-3.43s8.04-8.69,8.87-14.44c0.04-0.25,0.06-0.55-0.11-0.74
					c-0.16-0.18-0.44-0.2-0.68-0.2C184.26,363.01,172.05,372.4,169.42,381.88"/>
			</g>
			<g>
				<path class="st30" d="M149.19,359.76c8.1-4.56,13.31-13.7,13.46-23.62c-5.85-0.32-10.25,3.27-12.8,6.38
					C146.31,346.83,146.01,354.42,149.19,359.76"/>
			</g>
			<g>
				<path class="st30" d="M155.08,375.78c-2.16-5.39-1.48-11.83,1.76-16.65c3.24-4.82,8.95-7.88,14.76-7.9
					c0.24,0,0.52,0.02,0.66,0.22c0.08,0.12,0.09,0.27,0.1,0.41c0.22,4.98-1.97,9.83-5.11,13.7c-3.14,3.87-7.18,6.89-11.23,9.78"/>
			</g>
			<g>
				<g>
					<path class="st31" d="M188.13,332.1c-10.79,10.25-14.57,26.69-17.44,40.74c-3.31,16.23-5.17,33.06-5.78,49.61
						c-0.01,0.28,0.4,0.27,0.43,0c1.94-16.2,2.7-32.44,5.88-48.49c2.83-14.32,6.47-30.94,17.11-41.65
						C188.46,332.18,188.26,331.98,188.13,332.1L188.13,332.1z"/>
				</g>
			</g>
			<g>
				<g>
					<path class="st31" d="M155.07,384.35c-0.17-4.86,0.65-9.24,1.75-13.94c0.05-0.2-0.24-0.33-0.34-0.14
						c-2.03,3.92-2.62,9.83-1.9,14.15C154.63,384.69,155.08,384.63,155.07,384.35L155.07,384.35z"/>
				</g>
			</g>
			<g>
				<g>
					<path class="st31" d="M155.74,343c-6.48,5.87-8.13,18.17-5.48,26.14c0.06,0.2,0.36,0.12,0.31-0.09
						c-1.92-8.32-1.29-19.63,5.25-25.98C155.86,343.03,155.79,342.96,155.74,343L155.74,343z"/>
				</g>
			</g>
			<g>
				<g>
					<path class="st31" d="M158.1,412.54c0.35-11.28-1.51-23.12-4.61-33.94c-3.06-10.67-7.97-22.25-16.11-30.08
						c-0.23-0.22-0.53,0.1-0.34,0.34c3.63,4.49,7.01,8.93,9.68,14.09c2.72,5.26,4.82,10.84,6.42,16.54
						c3.06,10.87,3.93,21.84,4.6,33.05C157.74,412.78,158.09,412.78,158.1,412.54L158.1,412.54z"/>
				</g>
			</g>
			<path id="XMLID_5_" class="st32" d="M191.19,392.88v7.99c0,31.69-10.51,40.7-10.51,40.7h-32.53c0,0-10.51-9.01-10.51-40.7v-7.99
				H191.19z"/>
		</g>
		<line class="st41" x1="119.78" y1="441.57" x2="630.22" y2="441.57"/>
	</g>
</g>
<g id="DESIGNED_BY_FREEPIK" class="st0">
	<g class="st42">
		<g id="XMLID_1_">
			<g id="XMLID_21_">
				<path id="XMLID_29_" class="st43" d="M385.1,465.68c-0.43,0.44-0.8,0.93-1.11,1.45l-0.47-0.24c-0.07-0.3-0.35-0.5-0.66-0.47
					c-0.33,0.04-0.57,0.34-0.53,0.67c0.04,0.33,0.34,0.57,0.67,0.53c0.07-0.01,0.13-0.03,0.18-0.05l0.45,0.23
					c-0.25,0.55-0.43,1.14-0.54,1.74l0.75,0.13c0.23-1.31,0.85-2.51,1.79-3.47L385.1,465.68z"/>
				<path id="XMLID_28_" class="st43" d="M390.59,463.37c-0.17,0-0.34,0.01-0.51,0.02l-0.07-0.63c0.19-0.15,0.3-0.39,0.27-0.64
					c-0.05-0.39-0.4-0.67-0.79-0.63c-0.39,0.05-0.67,0.4-0.63,0.8c0.03,0.25,0.19,0.46,0.41,0.56l0.07,0.62
					c-0.71,0.12-1.4,0.33-2.06,0.65l0.33,0.68c0.93-0.45,1.94-0.67,3-0.67c0.5,0,0.99,0.05,1.47,0.16l0.16-0.74
					C391.69,463.43,391.14,463.37,390.59,463.37z"/>
				<path id="XMLID_27_" class="st43" d="M397.19,465.92c0.33-0.04,0.57-0.34,0.53-0.67c-0.04-0.33-0.34-0.57-0.67-0.53
					c-0.31,0.04-0.54,0.3-0.53,0.61l-0.42,0.36c-0.42-0.43-0.89-0.81-1.41-1.14l-0.4,0.64c1.13,0.71,2.02,1.73,2.56,2.93l0.69-0.31
					c-0.25-0.55-0.57-1.07-0.94-1.54l0.4-0.35C397.06,465.93,397.13,465.93,397.19,465.92z"/>
				<path id="XMLID_26_" class="st43" d="M390.04,473.58c-0.39,0.02-0.77,0.03-1.16,0.03c-0.88,0-1.73-0.06-2.48-0.18
					c-0.39-0.06-0.85-0.16-1.27-0.29c1.05,1.86,3.07,3.13,5.39,3.13c2.86,0,5.26-1.92,5.95-4.5c-0.68,0.45-1.51,0.83-2.46,1.12
					C392.84,473.26,391.46,473.5,390.04,473.58z"/>
				<path id="XMLID_22_" class="st43" d="M390.59,464.89c-3.35,0-6.08,2.67-6.08,5.94c0,0.43,0.05,0.85,0.14,1.26
					c0.67,0.48,2.71,0.89,5.35,0.73c2.88-0.17,5.3-0.96,6.67-2.16c0-0.2-0.02-0.39-0.04-0.58
					C396.24,467.12,393.65,464.89,390.59,464.89z M388.43,471.4c-1.02,0-1.85-0.83-1.85-1.85c0-1.02,0.83-1.85,1.85-1.85
					c1.02,0,1.85,0.83,1.85,1.85C390.28,470.57,389.45,471.4,388.43,471.4z M393.17,470.5c-0.75,0-1.36-0.61-1.36-1.36
					s0.61-1.36,1.36-1.36s1.36,0.61,1.36,1.36S393.92,470.5,393.17,470.5z"/>
			</g>
			<path id="XMLID_19_" class="st43" d="M406.6,466.76c-0.29-0.12-0.81-0.31-1.38-0.24c-0.55,0.07-0.84,0.34-0.84,1.01v0.87h2.23
				v1.72h-2.23v5.45h-1.93v-5.45h-1.34v-1.72h1.34v-0.89c0-1.68,0.9-2.78,2.57-2.78c0.64,0,1.16,0.12,1.59,0.31V466.76z"/>
			<path id="XMLID_17_" class="st43" d="M411.3,470.09c-0.18-0.03-0.36-0.05-0.53-0.05c-0.9,0-1.51,0.55-1.51,1.61v3.91h-1.93v-7.17
				h1.87v0.79c0.45-0.67,1.14-0.98,2.02-0.98c0.41,0,0.85,0.13,1.09,0.34L411.3,470.09z"/>
			<path id="XMLID_14_" class="st43" d="M418.96,471.97c0,0.22-0.01,0.49-0.04,0.65h-5.08c0.21,1.04,0.93,1.49,1.84,1.49
				c0.62,0,1.29-0.25,1.81-0.69l1.13,1.24c-0.81,0.75-1.85,1.09-3.06,1.09c-2.2,0-3.72-1.5-3.72-3.75c0-2.26,1.48-3.8,3.63-3.8
				C417.54,468.2,418.96,469.73,418.96,471.97z M413.85,471.3h3.17c-0.18-0.92-0.73-1.44-1.56-1.44
				C414.55,469.86,414.02,470.41,413.85,471.3z"/>
			<path id="XMLID_11_" class="st43" d="M426.62,471.97c0,0.22-0.01,0.49-0.04,0.65h-5.08c0.21,1.04,0.93,1.49,1.84,1.49
				c0.62,0,1.3-0.25,1.81-0.69l1.13,1.24c-0.81,0.75-1.85,1.09-3.06,1.09c-2.2,0-3.72-1.5-3.72-3.75c0-2.26,1.48-3.8,3.63-3.8
				C425.2,468.2,426.61,469.73,426.62,471.97z M421.5,471.3h3.18c-0.18-0.92-0.73-1.44-1.56-1.44
				C422.21,469.86,421.67,470.41,421.5,471.3z"/>
			<path id="XMLID_8_" class="st43" d="M434.96,471.97c0,2.15-1.5,3.77-3.47,3.77c-0.96,0-1.64-0.38-2.11-0.93v3.71h-1.92v-10.13
				h1.89v0.79c0.47-0.58,1.15-0.98,2.14-0.98C433.47,468.2,434.96,469.82,434.96,471.97z M429.29,471.97c0,1.13,0.75,1.98,1.84,1.98
				c1.14,0,1.85-0.88,1.85-1.98c0-1.1-0.71-1.98-1.85-1.98C430.04,470,429.29,470.84,429.29,471.97z"/>
			<path id="XMLID_4_" class="st43" d="M438.07,466.05c0,0.7-0.54,1.23-1.24,1.23c-0.7,0-1.23-0.53-1.23-1.23
				c0-0.7,0.53-1.24,1.23-1.24C437.53,464.8,438.07,465.35,438.07,466.05z M437.81,475.56h-1.93v-7.17h1.93V475.56z"/>
			<path id="XMLID_2_" class="st43" d="M441.03,470.95l2.7-2.55h2.37l-3.48,3.38l3.5,3.8h-2.38l-2.72-2.9v2.9h-1.93v-10.66h1.93
				V470.95z"/>
		</g>
		<g>
			<path class="st43" d="M309.41,475.5v-1.05c-0.53,0.72-1.39,1.23-2.39,1.23c-1.85,0-3.15-1.41-3.15-3.71
				c0-2.26,1.29-3.72,3.15-3.72c0.95,0,1.82,0.47,2.39,1.25v-3.76h1.1v9.77H309.41z M309.41,473.58v-3.21
				c-0.4-0.62-1.25-1.14-2.12-1.14c-1.42,0-2.27,1.17-2.27,2.74c0,1.57,0.85,2.72,2.27,2.72
				C308.17,474.69,309.02,474.2,309.41,473.58z"/>
			<path class="st43" d="M311.93,471.95c0-2.05,1.46-3.71,3.49-3.71c2.14,0,3.4,1.67,3.4,3.79v0.28h-5.73
				c0.09,1.33,1.03,2.45,2.55,2.45c0.81,0,1.63-0.32,2.18-0.89l0.53,0.72c-0.7,0.7-1.66,1.08-2.81,1.08
				C313.44,475.67,311.93,474.17,311.93,471.95z M315.4,469.16c-1.51,0-2.26,1.27-2.31,2.36h4.64
				C317.72,470.46,317.01,469.16,315.4,469.16z"/>
			<path class="st43" d="M319.61,474.56l0.57-0.79c0.47,0.54,1.36,1.01,2.33,1.01c1.08,0,1.67-0.51,1.67-1.22
				c0-1.71-4.38-0.66-4.38-3.28c0-1.1,0.95-2.04,2.64-2.04c1.2,0,2.05,0.45,2.62,1.03l-0.51,0.76c-0.42-0.51-1.2-0.89-2.11-0.89
				c-0.97,0-1.57,0.48-1.57,1.11c0,1.55,4.38,0.53,4.38,3.28c0,1.19-0.95,2.14-2.78,2.14C321.31,475.67,320.32,475.32,319.61,474.56
				z"/>
			<path class="st43" d="M326.48,466.68c0-0.41,0.34-0.75,0.73-0.75c0.41,0,0.75,0.34,0.75,0.75c0,0.41-0.34,0.73-0.75,0.73
				C326.81,467.41,326.48,467.09,326.48,466.68z M326.67,475.5v-7.08h1.1v7.08H326.67z"/>
			<path class="st43" d="M329.58,477.32l0.56-0.82c0.59,0.7,1.29,0.97,2.3,0.97c1.17,0,2.27-0.57,2.27-2.12v-1.01
				c-0.51,0.72-1.38,1.26-2.37,1.26c-1.85,0-3.15-1.38-3.15-3.66c0-2.27,1.29-3.68,3.15-3.68c0.95,0,1.8,0.47,2.37,1.25v-1.07h1.1
				v6.87c0,2.34-1.64,3.08-3.37,3.08C331.24,478.37,330.42,478.14,329.58,477.32z M334.71,473.46v-3.09
				c-0.38-0.62-1.23-1.14-2.11-1.14c-1.42,0-2.27,1.13-2.27,2.7c0,1.55,0.85,2.7,2.27,2.7
				C333.48,474.62,334.33,474.08,334.71,473.46z"/>
			<path class="st43" d="M342.41,475.5v-4.63c0-1.25-0.63-1.64-1.58-1.64c-0.86,0-1.68,0.53-2.09,1.1v5.17h-1.1v-7.08h1.1v1.03
				c0.5-0.59,1.46-1.2,2.52-1.2c1.48,0,2.26,0.75,2.26,2.29v4.97H342.41z"/>
			<path class="st43" d="M344.93,471.95c0-2.05,1.46-3.71,3.49-3.71c2.14,0,3.4,1.67,3.4,3.79v0.28h-5.73
				c0.09,1.33,1.03,2.45,2.55,2.45c0.81,0,1.63-0.32,2.18-0.89l0.53,0.72c-0.7,0.7-1.66,1.08-2.81,1.08
				C346.44,475.67,344.93,474.17,344.93,471.95z M348.4,469.16c-1.51,0-2.26,1.27-2.31,2.36h4.64
				C350.72,470.46,350.02,469.16,348.4,469.16z"/>
			<path class="st43" d="M358.35,475.5v-1.05c-0.53,0.72-1.39,1.23-2.39,1.23c-1.85,0-3.15-1.41-3.15-3.71
				c0-2.26,1.29-3.72,3.15-3.72c0.95,0,1.82,0.47,2.39,1.25v-3.76h1.1v9.77H358.35z M358.35,473.58v-3.21
				c-0.4-0.62-1.24-1.14-2.12-1.14c-1.42,0-2.27,1.17-2.27,2.74c0,1.57,0.85,2.72,2.27,2.72
				C357.11,474.69,357.95,474.2,358.35,473.58z"/>
			<path class="st43" d="M364.69,475.5v-9.77h1.1v3.76c0.57-0.78,1.42-1.25,2.39-1.25c1.85,0,3.15,1.46,3.15,3.72
				c0,2.3-1.3,3.71-3.15,3.71c-1,0-1.86-0.51-2.39-1.23v1.05H364.69z M367.9,474.69c1.44,0,2.29-1.16,2.29-2.72
				c0-1.57-0.85-2.74-2.29-2.74c-0.86,0-1.73,0.53-2.11,1.14v3.21C366.17,474.2,367.04,474.69,367.9,474.69z"/>
			<path class="st43" d="M372.53,477.27c0.16,0.07,0.43,0.12,0.6,0.12c0.48,0,0.81-0.16,1.05-0.75l0.47-1.07l-2.96-7.15h1.19
				l2.36,5.8l2.34-5.8h1.2l-3.54,8.51c-0.42,1.03-1.14,1.42-2.08,1.44c-0.23,0-0.6-0.04-0.81-0.1L372.53,477.27z"/>
		</g>
	</g>
</g>
</svg>
