<?xml version="1.0"?>
<svg xmlns="http://www.w3.org/2000/svg" xmlns:xlink="http://www.w3.org/1999/xlink" xmlns:svgjs="http://svgjs.com/svgjs" version="1.1" width="512" height="512" x="0" y="0" viewBox="0 0 512.328 512.328" style="enable-background:new 0 0 512 512" xml:space="preserve" class=""><g><g xmlns="http://www.w3.org/2000/svg"><path d="m345.307 494.43c-1.311-6.278-6.474-11.158-12.868-11.959-6.343-.794-12.666 2.704-15.392 8.476-2.462 5.213-1.673 11.499 1.986 15.948 4.022 4.89 10.867 6.696 16.793 4.51 6.775-2.498 10.961-9.872 9.481-16.975z" fill="#81c784" data-original="#000000" style="" class=""/><path d="m283.997 494.43c-1.284-6.15-6.27-10.965-12.505-11.909-6.189-.937-12.486 2.253-15.425 7.769-2.942 5.521-2.116 12.496 2.104 17.14 4.213 4.637 11.067 6.173 16.856 3.78 6.583-2.722 10.269-9.832 8.97-16.78z" fill="#81c784" data-original="#000000" style="" class=""/><path d="m222.676 494.43c-1.303-6.272-6.474-11.162-12.863-11.959-6.345-.791-12.669 2.699-15.397 8.476-2.458 5.204-1.665 11.505 1.986 15.948 4.02 4.892 10.869 6.695 16.793 4.51 6.778-2.498 10.962-9.87 9.481-16.975z" fill="#81c784" data-original="#000000" style="" class=""/><path d="m161.367 494.43c-1.31-6.275-6.481-11.156-12.868-11.959-6.347-.797-12.665 2.703-15.392 8.476-2.696 5.708-1.47 12.731 3.073 17.142 4.596 4.463 11.684 5.516 17.375 2.575 5.915-3.057 9.027-9.735 7.812-16.234z" fill="#81c784" data-original="#000000" style="" class=""/><path d="m100.047 494.43c-1.309-6.272-6.469-11.162-12.862-11.959-6.316-.787-12.705 2.689-15.396 8.476-2.43 5.227-1.683 11.485 1.985 15.948 4.02 4.892 10.87 6.695 16.793 4.51 6.777-2.498 10.96-9.871 9.48-16.975z" fill="#81c784" data-original="#000000" style="" class=""/><path d="m345.307 433.21c-1.282-6.152-6.264-10.968-12.504-11.905-6.187-.929-12.485 2.244-15.426 7.764-2.942 5.521-2.102 12.502 2.11 17.141 4.206 4.632 11.069 6.184 16.85 3.78 6.483-2.696 10.415-9.857 8.97-16.78z" fill="#81c784" data-original="#000000" style="" class=""/><path d="m283.997 433.21c-1.282-6.153-6.271-10.961-12.505-11.905-6.18-.936-12.497 2.241-15.425 7.764-2.933 5.534-2.122 12.485 2.104 17.141 4.205 4.633 11.075 6.186 16.856 3.78 6.578-2.738 10.274-9.82 8.97-16.78z" fill="#81c784" data-original="#000000" style="" class=""/><path d="m222.676 433.21c-1.274-6.148-6.263-10.967-12.496-11.905-6.189-.932-12.491 2.242-15.434 7.764-2.942 5.521-2.102 12.502 2.11 17.141 4.206 4.632 11.069 6.184 16.85 3.78 6.486-2.696 10.416-9.857 8.97-16.78z" fill="#81c784" data-original="#000000" style="" class=""/><path d="m161.367 433.21c-1.282-6.154-6.271-10.961-12.505-11.905-6.188-.937-12.485 2.247-15.425 7.764-2.944 5.525-2.115 12.493 2.104 17.141 4.204 4.632 11.077 6.188 16.856 3.78 6.578-2.74 10.274-9.818 8.97-16.78z" fill="#81c784" data-original="#000000" style="" class=""/><path d="m100.047 433.21c-1.15-6.15-6.354-10.98-12.496-11.905-6.189-.932-12.49 2.242-15.434 7.764-2.943 5.521-2.101 12.501 2.11 17.141 4.204 4.633 11.07 6.184 16.85 3.78 6.487-2.697 10.415-9.856 8.97-16.78z" fill="#81c784" data-original="#000000" style="" class=""/><path d="m345.307 371.99c-1.15-6.118-6.353-11.02-12.496-11.904-6.211-.894-12.477 2.222-15.434 7.773-2.951 5.54-2.084 12.469 2.11 17.132 4.184 4.651 11.086 6.181 16.85 3.779 6.487-2.704 10.417-9.847 8.97-16.78z" fill="#81c784" data-original="#000000" style="" class=""/><path d="m283.997 371.99c-1.275-6.121-6.275-11.003-12.505-11.904-6.211-.898-12.47 2.226-15.425 7.773-2.953 5.545-2.097 12.46 2.104 17.132 4.183 4.651 11.094 6.184 16.856 3.779 6.579-2.747 10.276-9.809 8.97-16.78z" fill="#81c784" data-original="#000000" style="" class=""/><path d="m222.676 371.99c-1.268-6.117-6.266-11.008-12.496-11.904-6.211-.893-12.477 2.222-15.434 7.773-2.952 5.543-2.087 12.466 2.11 17.132 4.184 4.651 11.086 6.181 16.85 3.779 6.487-2.704 10.418-9.847 8.97-16.78z" fill="#81c784" data-original="#000000" style="" class=""/><path d="m161.367 371.99c-1.275-6.122-6.275-11.003-12.505-11.904-6.21-.898-12.471 2.226-15.425 7.773-2.952 5.542-2.094 12.464 2.104 17.132 4.187 4.655 11.089 6.176 16.856 3.779 6.581-2.737 10.275-9.816 8.97-16.78z" fill="#81c784" data-original="#000000" style="" class=""/><path d="m100.047 371.99c-1.144-6.118-6.357-11.021-12.496-11.904-6.211-.894-12.476 2.222-15.434 7.773-2.952 5.54-2.083 12.468 2.11 17.132 4.183 4.652 11.087 6.18 16.85 3.779 6.488-2.705 10.417-9.847 8.97-16.78z" fill="#81c784" data-original="#000000" style="" class=""/><path d="m453.827 0h-276.513c-8.284 0-15 6.716-15 15v122.102c-33.41 4.405-60.249 30.612-65.485 63.78-25.853 10.509-43.109 35.558-43.109 64.26v32.312c-5.937 1.998-10.219 7.598-10.219 14.208 0 8.284 6.716 15 15 15h298.941c8.284 0 15-6.716 15-15 0-6.611-4.282-12.211-10.219-14.208v-32.312c0-28.702-17.256-53.751-43.109-64.26-5.236-33.168-32.076-59.375-65.485-63.78v-45.884h200.198c8.284 0 15-6.716 15-15v-61.218c0-8.284-6.716-15-15-15zm-121.604 265.142v31.521h-248.503v-31.521c0-17.931 11.866-33.35 29.045-38.029h190.413c17.18 4.679 29.045 20.097 29.045 38.029zm-44.927-68.03h-158.649c6.462-17.843 23.634-30.673 43.633-30.673h71.383c20 0 37.172 12.831 43.633 30.673zm151.531-135.894h-200.198c-8.284 0-15 6.716-15 15v60.222h-31.315v-106.44h246.513z" fill="#81c784" data-original="#000000" style="" class=""/></g></g></svg>
