<?xml version="1.0"?>
<svg xmlns="http://www.w3.org/2000/svg" xmlns:xlink="http://www.w3.org/1999/xlink" xmlns:svgjs="http://svgjs.com/svgjs" version="1.1" width="512" height="512" x="0" y="0" viewBox="0 0 511.655 511.655" style="enable-background:new 0 0 512 512" xml:space="preserve" class=""><g><g xmlns="http://www.w3.org/2000/svg"><path d="m436.725 74.93c-48.319-48.319-112.563-74.93-180.897-74.93s-132.578 26.611-180.898 74.93-74.93 112.564-74.93 180.898 26.611 132.578 74.93 180.897 112.563 74.93 180.897 74.93 132.578-26.611 180.897-74.93 74.93-112.563 74.93-180.897-26.61-132.578-74.929-180.898zm-21.213 340.582c-42.653 42.653-99.363 66.144-159.684 66.144s-117.031-23.49-159.684-66.144-66.144-99.364-66.144-159.684 23.49-117.031 66.144-159.684 99.363-66.144 159.684-66.144 117.031 23.49 159.684 66.144 66.144 99.363 66.144 159.684-23.491 117.03-66.144 159.684z" fill="#81c784" data-original="#000000" style=""/><path d="m255.828 94.045c-89.207 0-161.782 72.575-161.782 161.782s72.575 161.783 161.782 161.783 161.782-72.575 161.782-161.782-72.575-161.783-161.782-161.783zm0 293.565c-72.665 0-131.782-59.117-131.782-131.782s59.117-131.782 131.782-131.782 131.782 59.117 131.782 131.782-59.117 131.782-131.782 131.782z" fill="#81c784" data-original="#000000" style=""/></g></g></svg>
