<?xml version="1.0"?>
<svg xmlns="http://www.w3.org/2000/svg" xmlns:xlink="http://www.w3.org/1999/xlink" xmlns:svgjs="http://svgjs.com/svgjs" version="1.1" width="512" height="512" x="0" y="0" viewBox="0 0 512 512" style="enable-background:new 0 0 512 512" xml:space="preserve"><g><g xmlns="http://www.w3.org/2000/svg"><path d="m267.524 367.397c-5.303-6.364-14.763-7.225-21.126-1.921-6.364 5.304-7.224 14.762-1.921 21.126 9.849 11.819 9.849 28.976 0 40.795-19.123 22.947-19.123 56.258 0 79.205 2.967 3.56 7.233 5.398 11.532 5.398 3.385 0 6.791-1.14 9.594-3.477 6.364-5.304 7.224-14.762 1.921-21.126-9.849-11.819-9.849-28.976 0-40.795 19.122-22.947 19.122-56.257 0-79.205z" fill="#81c784" data-original="#000000" style=""/><path d="m357.524 367.397c-5.303-6.364-14.763-7.225-21.126-1.921-6.364 5.304-7.224 14.762-1.921 21.126 9.849 11.819 9.849 28.976 0 40.795-19.123 22.947-19.123 56.258 0 79.205 2.967 3.56 7.233 5.398 11.532 5.398 3.385 0 6.791-1.14 9.594-3.477 6.364-5.304 7.224-14.762 1.921-21.126-9.849-11.819-9.849-28.976 0-40.795 19.122-22.947 19.122-56.257 0-79.205z" fill="#81c784" data-original="#000000" style=""/><path d="m177.524 367.397c-5.303-6.364-14.762-7.225-21.126-1.921s-7.224 14.762-1.921 21.126c9.849 11.819 9.849 28.976 0 40.795-19.123 22.947-19.123 56.258 0 79.205 2.967 3.56 7.233 5.398 11.532 5.398 3.385 0 6.791-1.14 9.594-3.477 6.364-5.304 7.224-14.762 1.921-21.126-9.849-11.819-9.849-28.976 0-40.795 19.122-22.947 19.122-56.257 0-79.205z" fill="#81c784" data-original="#000000" style=""/><path d="m377.15 84.965c-2.845-3.16-6.897-4.965-11.15-4.965h-220c-4.252 0-8.305 1.805-11.149 4.965l-85.531 95.035h413.361z" fill="#81c784" data-original="#000000" style=""/><path d="m351 15c0-8.284-6.716-15-15-15h-160c-8.284 0-15 6.716-15 15v35h190z" fill="#81c784" data-original="#000000" style=""/><path d="m471 210h-430c-22.091 0-40 17.909-40 40v65c0 8.284 6.716 15 15 15h480c8.284 0 15-6.716 15-15v-65c0-22.091-17.908-40-40-40zm-395 75c-8.284 0-15-6.716-15-15s6.716-15 15-15 15 6.716 15 15-6.715 15-15 15zm60 0c-8.284 0-15-6.716-15-15s6.716-15 15-15 15 6.716 15 15-6.715 15-15 15zm60 0c-8.284 0-15-6.716-15-15s6.716-15 15-15 15 6.716 15 15-6.715 15-15 15z" fill="#81c784" data-original="#000000" style=""/></g></g></svg>
