<?xml version="1.0"?>
<svg xmlns="http://www.w3.org/2000/svg" xmlns:xlink="http://www.w3.org/1999/xlink" xmlns:svgjs="http://svgjs.com/svgjs" version="1.1" width="512" height="512" x="0" y="0" viewBox="0 0 489 489" style="enable-background:new 0 0 512 512" xml:space="preserve" class=""><g>
<g xmlns="http://www.w3.org/2000/svg">
	<g>
		<g>
			<path d="M340.553,219h-105.6V21.2c0-11.7-9.5-21.2-21.2-21.2l0,0c-11.7,0-21.2,9.5-21.2,21.2V219h-105.6     c-18.5,0-21.4,17.4-20.4,23.5l32.6,229.2c2,10.2,10.2,17.3,20.4,17.3h188.5c10.2,0,19.4-7.1,20.4-17.3l32.5-229.2     C361.953,236.4,358.853,219,340.553,219z M290.653,448.2h-153.8l-26.5-188.5h206.8L290.653,448.2z" fill="#81c784" data-original="#000000" style="" class=""/>
			<path d="M477.053,60.1c-38.7-20.4-90.7-20.4-133.5-1c-43.8,20.4-73.3,58.1-79.5,100.9c-1,8.1,4.1,16.3,11.2,20.4     c59.1,30.9,113.1,11.2,133.5,1c43.8-20.4,73.3-58.1,79.5-100.9C489.353,72.3,484.253,64.2,477.053,60.1z M391.553,145.7     c-26.5,11.2-57,13.2-82.5,5.1c8.1-22.4,27.5-42.8,53-55c26.5-11.2,57-13.2,82.5-5.1C436.353,114.1,416.953,133.5,391.553,145.7z" fill="#81c784" data-original="#000000" style="" class=""/>
			<path d="M139.853,182.4c7.1-2,13.2-9.2,14.3-17.3c4.1-32.6-11.2-65.2-40.7-87.6c-27.6-21.5-65.3-28.6-97.9-19.4     c-8.1,3.1-14.3,9.2-14.3,17.3c-4.1,32.6,11.2,65.2,40.7,87.6C87.453,196.6,130.753,185.4,139.853,182.4z M42.053,95.8     c16.3-1,33.6,4.1,46.9,15.3c13.2,9.2,21.4,22.4,24.4,35.7c-16.3,0-33.6-5.1-46.9-15.3C53.253,122.3,45.153,109,42.053,95.8z" fill="#81c784" data-original="#000000" style="" class=""/>
		</g>
	</g>
</g>
<g xmlns="http://www.w3.org/2000/svg">
</g>
<g xmlns="http://www.w3.org/2000/svg">
</g>
<g xmlns="http://www.w3.org/2000/svg">
</g>
<g xmlns="http://www.w3.org/2000/svg">
</g>
<g xmlns="http://www.w3.org/2000/svg">
</g>
<g xmlns="http://www.w3.org/2000/svg">
</g>
<g xmlns="http://www.w3.org/2000/svg">
</g>
<g xmlns="http://www.w3.org/2000/svg">
</g>
<g xmlns="http://www.w3.org/2000/svg">
</g>
<g xmlns="http://www.w3.org/2000/svg">
</g>
<g xmlns="http://www.w3.org/2000/svg">
</g>
<g xmlns="http://www.w3.org/2000/svg">
</g>
<g xmlns="http://www.w3.org/2000/svg">
</g>
<g xmlns="http://www.w3.org/2000/svg">
</g>
<g xmlns="http://www.w3.org/2000/svg">
</g>
</g></svg>
