<?xml version="1.0"?>
<svg xmlns="http://www.w3.org/2000/svg" xmlns:xlink="http://www.w3.org/1999/xlink" xmlns:svgjs="http://svgjs.com/svgjs" version="1.1" width="512" height="512" x="0" y="0" viewBox="0 0 512 512" style="enable-background:new 0 0 512 512" xml:space="preserve"><g>
  <g xmlns="http://www.w3.org/2000/svg">
    <g>
      <path d="m460.2,360.7h-74c-0.3-71.5-58.6-129.5-130.1-129.5-71.6,0-129.8,58-130.1,129.5h-74v-308.9h408.3v308.9h-0.1zm-293.5,0c0.3-49 40.3-88.7 89.3-88.7s89,39.7 89.3,88.7h-178.6zm313.9-349.7h-449.2c-11.3,0-20.4,9.1-20.4,20.4v349.7c0,11.3 9.1,20.4 20.4,20.4h204.2v58.6h-69.9c-11.3,0-20.4,9.1-20.4,20.4 0,11.3 9.1,20.4 20.4,20.4h180.6c11.3,0 20.4-9.1 20.4-20.4 0-11.3-9.1-20.4-20.4-20.4h-69.9v-58.6h204.2c11.3,0 20.4-9.1 20.4-20.4v-349.7c5.68434e-14-11.3-9.1-20.4-20.4-20.4z" fill="#81c784" data-original="#000000" style=""/>
      <path d="m256,118.9c12.8,0 23.1,10.4 23.1,23.1 0,12.8-10.4,23.1-23.1,23.1-12.8,0-23.1-10.4-23.1-23.1 0-12.8 10.3-23.1 23.1-23.1zm0,87c35.3,0 64-28.7 64-64 0-35.3-28.7-64-64-64-35.3,0-64,28.7-64,64 0,35.3 28.7,64 64,64z" fill="#81c784" data-original="#000000" style=""/>
    </g>
  </g>
</g></svg>
