<?xml version="1.0"?>
<svg xmlns="http://www.w3.org/2000/svg" xmlns:xlink="http://www.w3.org/1999/xlink" xmlns:svgjs="http://svgjs.com/svgjs" version="1.1" width="512" height="512" x="0" y="0" viewBox="0 0 512 512" style="enable-background:new 0 0 512 512" xml:space="preserve" class=""><g><g xmlns="http://www.w3.org/2000/svg"><path d="m497 73c-8.284 0-15 6.716-15 15v25h-35.076c-1.582-39.968-34.575-72-74.924-72h-248c-32.533 0-59 26.467-59 59v13h-35v-25c0-8.284-6.716-15-15-15s-15 6.716-15 15v80c0 8.284 6.716 15 15 15s15-6.716 15-15v-25h35v130c0 16.542 13.458 30 30 30h58v138c0 16.542 13.458 30 30 30h234c16.542 0 30-13.458 30-30v-298h35v25c0 8.284 6.716 15 15 15s15-6.716 15-15v-80c0-8.284-6.716-15-15-15zm-314 270h234v34h-234zm234-227v197h-234v-213c0-10.537-2.79-20.429-7.65-29h196.65c24.813 0 45 20.187 45 45zm-322-16c0-15.99 13.009-29 29-29s29 13.01 29 29v13h-58zm58 43v58h-58v-58zm-58 130v-42h58v41 1zm88 168v-34h234v34z" fill="#81c784" data-original="#000000" style=""/></g></g></svg>
