<?xml version="1.0"?>
<svg xmlns="http://www.w3.org/2000/svg" xmlns:xlink="http://www.w3.org/1999/xlink" xmlns:svgjs="http://svgjs.com/svgjs" version="1.1" width="512" height="512" x="0" y="0" viewBox="0 0 512 512" style="enable-background:new 0 0 512 512" xml:space="preserve" class=""><g><g xmlns="http://www.w3.org/2000/svg"><path d="m168.093 170.835c3.839 0 7.678-1.464 10.606-4.393l65.867-65.867c5.858-5.858 5.858-15.355 0-21.213-5.857-5.858-15.355-5.858-21.213 0l-65.867 65.867c-5.858 5.858-5.858 15.355 0 21.213 2.929 2.929 6.768 4.393 10.607 4.393z" fill="#81c784" data-original="#000000" style="" class=""/><path d="m264.992 155.885c3.838 0 7.678-1.465 10.606-4.393l20.563-20.562c5.858-5.858 5.858-15.355 0-21.213-5.856-5.857-15.355-5.858-21.213 0l-20.562 20.562c-5.858 5.858-5.858 15.355 0 21.213 2.928 2.928 6.767 4.393 10.606 4.393z" fill="#81c784" data-original="#000000" style="" class=""/><path d="m457.745 358.93c-2.812-2.813-6.628-4.394-10.606-4.394h-9.35v-339.536c0-8.284-6.716-15-15-15h-333.578c-8.284 0-15 6.716-15 15v339.537h-9.35c-8.284 0-15 6.716-15 15 0 78.554 63.909 142.463 142.463 142.463h127.352c78.555 0 142.463-63.909 142.463-142.463 0-3.978-1.58-7.794-4.394-10.607zm-353.534-328.93h303.578v324.537h-71.312v-21.33c0-8.284-6.716-15-15-15s-15 6.716-15 15v21.33h-40.446v-95.889c0-14.663 11.93-26.593 26.593-26.593 14.664 0 26.594 11.93 26.594 26.593v6.917c0 8.284 6.716 15 15 15s15-6.716 15-15v-6.917c0-31.206-25.388-56.593-56.594-56.593-31.205 0-56.593 25.387-56.593 56.593v95.889h-39.554v-21.33c0-8.284-6.716-15-15-15s-15 6.716-15 15v21.33h-62.266zm215.465 452h-127.352c-56.929 0-104.114-42.514-111.467-97.463l350.285.001c-7.353 54.948-54.537 97.462-111.466 97.462z" fill="#81c784" data-original="#000000" style="" class=""/></g></g></svg>
