<?xml version="1.0"?>
<svg xmlns="http://www.w3.org/2000/svg" xmlns:xlink="http://www.w3.org/1999/xlink" xmlns:svgjs="http://svgjs.com/svgjs" version="1.1" width="512" height="512" x="0" y="0" viewBox="0 0 512 512" style="enable-background:new 0 0 512 512" xml:space="preserve"><g><g xmlns="http://www.w3.org/2000/svg"><path d="m474.752 260.688c0-24.736-20.125-44.861-44.861-44.861h-29.109v-63.024h29.651v18.209c0 8.284 6.716 15 15 15s15-6.716 15-15v-33.209c0-8.284-6.716-15-15-15h-44.651v-33.104c24.326-.478 43.97-20.401 43.97-44.838 0-24.736-20.124-44.861-44.86-44.861h-287.784c-24.736 0-44.86 20.125-44.86 44.861 0 24.438 19.645 44.36 43.97 44.838v126.128h-29.11c-24.736 0-44.861 20.125-44.861 44.861 0 19.581 12.616 36.262 30.142 42.368 3.307 54.678 36.689 101.367 83.784 123.705l-18.191 66.268c-1.239 4.513-.301 9.345 2.537 13.066 2.837 3.721 7.249 5.905 11.928 5.905h217.104c4.679 0 9.091-2.184 11.928-5.905s3.775-8.553 2.537-13.066l-18.191-66.268c47.095-22.337 80.477-69.026 83.784-123.705 17.528-6.106 30.143-22.787 30.143-42.368zm-377.504-215.827c0-8.194 6.666-14.861 14.861-14.861h287.783c8.194 0 14.861 6.667 14.861 14.861s-6.667 14.861-14.861 14.861h-287.784c-8.194 0-14.86-6.667-14.86-14.861zm43.97 44.861h229.564v126.105h-229.564zm-59.11 156.105h347.783c8.194 0 14.861 6.667 14.861 14.861s-6.667 14.861-14.861 14.861h-347.783c-8.194 0-14.861-6.667-14.861-14.861.001-8.194 6.667-14.861 14.861-14.861zm262.772 236.173h-177.76l12.414-45.224c11.01 2.647 22.495 4.059 34.305 4.059h84.322c11.81 0 23.295-1.412 34.305-4.059zm-46.719-71.165h-84.322c-60.504 0-110.399-46.272-116.169-105.286h316.66c-5.769 59.014-55.665 105.286-116.169 105.286z" fill="#81c784" data-original="#000000" style=""/></g></g></svg>
